/* XPM */
static char *dffcd6ffc8fb4a6fbbdbc2301324ea76XUnIfJmafoWqUVrO[] = {
/* columns rows colors chars-per-pixel */
"64 64 3 1 ",
"  c black",
". c #010101",
"X c #020202",
/* pixels */
"                                                                ",
"                                                                ",
"                                                                ",
"                                                                ",
"                                                                ",
"                                                                ",
"                                                                ",
"                                                                ",
" X X X X                                                        ",
"X X X X                                                         ",
" X X X X                                                        ",
"X X X X                                                         ",
" X X X X                                                        ",
"X X X X                                                         ",
" X X X                                                          ",
"X X X                                                           ",
"                                                                ",
"                                                                ",
"                                                                ",
"                                                                ",
"                                                                ",
"                                                                ",
"                                                                ",
"                                                                ",
"                                                                ",
"                                                                ",
"                                                                ",
"                                                                ",
"                                                                ",
"                                                                ",
"                                                                ",
"                                                                ",
"                                                                ",
"                                                                ",
"                                                                ",
"                                                                ",
"                                                                ",
"                                                                ",
"                                                                ",
"                                                                ",
"                                                                ",
"                                                                ",
"                                                                ",
"                                                                ",
"                                                                ",
"                                                                ",
"                                                                ",
"                                                                ",
"                                                                ",
"                                                                ",
"                                                                ",
"                                                                ",
"                                                                ",
"                                                                ",
"                                                                ",
"                                                                ",
" X X X X         X X X X X XXX                            XXXX  ",
"X X X X         X X X X   XXX X                          X XX X ",
" X X X X         X X X X  XXX X                          X XXX  ",
"X X X X         X X X X  X XXX                            XXX X ",
" X X X X         X X X X X XXX                           X XXX  ",
"X X X X         X X X X   XXX X                           XXX X ",
" X X X X         X X X X X XXX                            XXXX  ",
"X X X X         X X X X   XXX X                          X XX X "
};
